# xmcd
#
# Track frame offsets:
#	183
#	16310
#	28925
#	44300
#	57415
#	70763
#	87663
#	109373
#	125345
#	140295
#	155570
#	169320
#	186370
#	197228
#	210235
#	223510
#
# Disc length: 3204
#
# Revision: 2
# Processed by: cddbd v1.5.1PL0 Copyright (c) Steve Scherf et al.
# Submitted via: audiograbber 1.83.01
# Normalized: r1:DSETVAR1
#
DISCID=ef0c8210
DTITLE=Various Artist - Wünsch Dir was '91
DYEAR=1991
DGENRE=Volksmusik
TTITLE0=Patrick Lindner - Manchmal braucht man was, an des ma glaub'n kann
TTITLE1=Christina Ebner - Die Großen und die Kleinen
TTITLE2=Kastelruther Spatzen - Spreng die Ketten Deiner Einsamkeit
TTITLE3=Karl Moik - Das Zipferl vom Glück
TTITLE4=Teddy Parker - Jeder Tag ist ein Geschenk
TTITLE5=Ireen Sheer - Fantasy Island
TTITLE6=Western Union - L.I.E.B.E. (L- für lebenslänglich)
TTITLE7=Die Wildecker Herzbuben - Weil wir Freunde sind
TTITLE8=Nicki - Hals über Kopf
TTITLE9=Roy Black - Wie ein Stern am Horizont
TTITLE10=Tanja Jonk - Hand in Hand in die Sonne
TTITLE11=Die Paldauer - Tränen der Liebe
TTITLE12=Wolfgang Hermann - Der weißblaue Himmel
TTITLE13=Andy Borg and Alexandra - Solang ma d'Sonn net kaufen kann
TTITLE14=Michael Klostermann und seine Musikanten - Komm mit in's Land der Träume
TTITLE15=Pössnecker Musikanten - Tränen im Wind
EXTD=
EXTT0=
EXTT1=
EXTT2=
EXTT3=
EXTT4=
EXTT5=
EXTT6=
EXTT7=
EXTT8=
EXTT9=
EXTT10=
EXTT11=
EXTT12=
EXTT13=
EXTT14=
EXTT15=
PLAYORDER=
